<svg viewBox="0 0 48 48" xml:space="preserve"
  xmlns="http://www.w3.org/2000/svg"
  xmlns:xlink="http://www.w3.org/1999/xlink">
  <path d="M41.7,14.9l-8.6-8.6C33,6.1,32.7,6,32.4,6s-0.5,0.1-0.7,0.3L7.5,30.5c-0.2,0.2-0.3,0.4-0.3,0.6L6,40.9  c0,0.3,0.1,0.6,0.3,0.8C6.5,41.9,6.7,42,7,42c0,0,0.1,0,0.1,0l9.6-1c0.2,0,0.4-0.1,0.6-0.3l19-19c0,0,0,0,0,0c0,0,0,0,0,0l5.4-5.4  C42.1,15.9,42.1,15.3,41.7,14.9z M16.1,39.1l-8,0.8l1-8.2l17.9-17.9l7.1,7.2L16.1,39.1z M35.6,19.5l-7.1-7.2l4-4l7.2,7.2L35.6,19.5z  " fill="currentColor"/>
</svg>